<?xml version="1.0" encoding="UTF-8"?>
<!DOCTYPE svg PUBLIC "-//W3C//DTD SVG 1.1//EN" "http://www.w3.org/Graphics/SVG/1.1/DTD/svg11.dtd">
<!-- Creator: CorelDRAW -->
<svg xmlns="http://www.w3.org/2000/svg" xml:space="preserve" width="210mm" height="215mm" style="shape-rendering:geometricPrecision; text-rendering:geometricPrecision; image-rendering:optimizeQuality; fill-rule:evenodd; clip-rule:evenodd"
viewBox="0 0 210 215"
 xmlns:xlink="http://www.w3.org/1999/xlink">
 <defs>
  <style type="text/css">
   <![CDATA[
    .fil0 {fill:#969594}
   ]]>
  </style>
 </defs>
 <g id="Layer_x0020_1">
  <metadata id="CorelCorpID_0Corel-Layer"/>
  <path class="fil0" d="M209.296 64.6731c-5.8721,2.4229 -11.4973,4.8454 -16.9586,7.3503 -13.0575,5.9128 -24.0208,11.5792 -32.8488,16.9581 -8.2533,5.1324 -17.3276,13.3038 -27.1823,24.5547l-4.3115 -0.7391c2.9565,-3.5316 5.9948,-6.8163 9.1156,-9.8547 7.3086,-7.309 14.1249,-12.8523 20.4485,-16.6298 12.2771,-7.3502 27.7163,-14.9052 46.317,-22.5838 -5.6664,-2.9976 -10.9633,-5.9128 -15.8499,-8.7872 -11.9076,-6.9803 -20.9,-13.1807 -27.1004,-18.6415 -7.5962,-6.8163 -16.8349,-17.5333 -27.6339,-32.1509 -5.2969,2.8332 -10.3886,5.584 -15.3159,8.3353 -11.5381,6.7338 -20.9413,12.9755 -28.2503,18.7651 -10.1011,7.9245 -19.9145,17.8204 -29.4816,29.6872 3.613,1.9297 7.0622,3.9826 10.3474,6.1592 8.0069,5.0505 14.782,10.0186 20.2021,14.9052 6.2824,5.7072 13.3038,14.9052 21.0644,27.6751l-6.7344 -0.9855c-1.7653,-3.2847 -3.613,-6.3643 -5.5432,-9.2387 -4.4754,-6.9803 -8.9512,-12.4416 -13.3446,-16.3834 -6.488,-5.7485 -16.9586,-12.8524 -31.4118,-21.2696 2.9971,-3.6955 6.0767,-7.309 9.2795,-10.8401 7.5967,-8.3358 15.0696,-15.398 22.3787,-21.1469 11.7024,-9.2387 27.3467,-18.8878 46.8917,-29.0301 3.3672,4.599 6.6931,8.828 9.8959,12.7699 7.6781,9.5264 14.2893,16.7942 19.8326,21.7627 9.8546,8.7461 25.2526,18.5183 46.1938,29.3585zm-21.27 -1.0675c-22.6246,-3.6955 -41.2665,-5.5844 -55.9661,-5.6664 0.2464,15.7263 -2.6281,30.2619 -8.6641,43.6889l-11.1685 -15.3155c1.8478,-2.7924 3.4492,-5.6257 4.8042,-8.5408 3.2847,-6.8983 5.1737,-13.3858 5.6665,-19.463 -10.6763,0.6978 -24.0208,2.5456 -40.0759,5.5432l-10.1011 -6.1592c9.8547,-1.7658 26.6077,-3.8599 50.3001,-6.2411 0.4515,-14.8233 3.326,-26.8133 8.5404,-35.9696l5.5026 6.857c-3.4492,6.1592 -5.133,15.8495 -5.0506,28.9894 11.5793,0.1639 25.7454,1.2318 42.5803,3.2435l13.6322 9.0336zm9.8547 111.522l-95.3849 39.0899 -101.791 -39.0899 0 -70.1327 85.9002 -17.2045 3.3667 0.4516c2.4636,2.9151 6.036,7.8017 10.7169,14.7l-41.0201 -7.2271 -12.1539 2.7513 86.3516 16.5066 15.8907 -3.3672 -11.9076 -2.1761c2.2581,-3.5311 6.2412,-7.4729 12.0308,-11.7844l48.0004 7.3498 0 70.1327z"/>
 </g>
</svg>
